# xmcd CD database file
# Copyright (C) 1993-1998 Ti Kan
#
# Track frame offsets:
#	150
#	17657
#	31865
#	60622
#	81482
#	114517
#	127592
#	144810
#	172230
#	185785
#	209284
#
# Disc length: 3403 seconds
#
# Revision: 1
# Processed by: cddbd v1.4b41PL1 Copyright (c) Steve Scherf et al.
# Submitted via: CDValet v3.31 - Copyright (c) 1997 Greg Leichner
#
DISCID=920d490b
DTITLE=Misc - Blues From The Heart - Volume II
DYEAR=1900
DGENRE=
TTITLE0=Don't It Make You Feel
TTITLE1=Lovin' Machine
TTITLE2=Reconsider Baby
TTITLE3=If I Don't Jump
TTITLE4=Fistful of Dollars
TTITLE5=Uranium Rock
TTITLE6=Act Like You Love Me
TTITLE7=Stop the Killing
TTITLE8=Justine
TTITLE9=When You Kiss Me
TTITLE10=Blues From the Heart
EXTD=
EXTT0=
EXTT1=
EXTT2=
EXTT3=
EXTT4=
EXTT5=
EXTT6=
EXTT7=
EXTT8=
EXTT9=
EXTT10=
PLAYORDER=
